<svg xmlns="http://www.w3.org/2000/svg"  viewBox="0 0 48 48" width="48px" height="48px"><path d="M 24.015625 1.03125 A 1.984 1.984 0 0 0 22.208984 3.8320312 C 20.828089 4.0735797 19.521067 4.6149311 18.460938 5.59375 C 16.943371 6.9949209 16.095703 9.1850609 16.095703 11.970703 C 16.095703 14.635802 16.788784 17.483326 17.986328 19.865234 C 17.912412 25.022768 16.227898 27.444652 14.394531 29.445312 C 13.457171 30.468207 12.449578 31.353016 11.583984 32.423828 C 10.71839 33.49464 10 34.861719 10 36.511719 C 10 37.418434 10.248713 38.192907 10.599609 38.841797 C 9.6367634 39.575657 9 40.721608 9 42.011719 C 9 44.203001 10.808718 46.011719 13 46.011719 L 35 46.011719 C 37.191282 46.011719 39 44.203001 39 42.011719 C 39 40.72063 38.362523 39.573617 37.398438 38.839844 C 37.748894 38.191252 37.998047 37.41773 37.998047 36.511719 C 37.998047 34.861819 37.279446 33.494647 36.414062 32.423828 C 35.54868 31.35301 34.542589 30.4682 33.605469 29.445312 C 31.783694 27.456805 30.11058 25.048244 30.017578 19.955078 C 31.242372 17.555352 31.951172 14.667447 31.951172 11.970703 C 31.951172 9.1846195 31.101636 6.9948355 29.583984 5.59375 C 28.520021 4.6115062 27.208013 4.0703167 25.822266 3.8300781 A 1.984 1.984 0 0 0 24.015625 1.03125 z M 24.023438 6.7226562 C 25.53491 6.7226562 26.715777 7.0955699 27.515625 7.8339844 C 28.315473 8.5723989 28.902344 9.768787 28.902344 11.970703 C 28.902344 13.904936 28.371794 16.18151 27.552734 18.03125 L 20.492188 18.03125 C 19.67426 16.181628 19.144531 13.904788 19.144531 11.970703 C 19.144531 9.7693456 19.729364 8.5725635 20.529297 7.8339844 C 21.32923 7.0954053 22.512108 6.7226562 24.023438 6.7226562 z M 20.857422 21.03125 L 27.140625 21.03125 C 27.498274 26.156904 29.461523 29.364866 31.392578 31.472656 C 32.454958 32.632268 33.447789 33.523787 34.082031 34.308594 C 34.716273 35.0934 34.998047 35.661619 34.998047 36.511719 C 34.998047 37.213469 34.69355 37.663066 34.318359 38.011719 L 13.679688 38.011719 C 13.304497 37.663066 13 37.213469 13 36.511719 C 13 35.661719 13.28161 35.09536 13.916016 34.310547 C 14.550422 33.525734 15.542829 32.632262 16.605469 31.472656 C 18.536981 29.364894 20.499654 26.156907 20.857422 21.03125 z M 13 41.011719 L 35 41.011719 C 35.570718 41.011719 36 41.441001 36 42.011719 C 36 42.582436 35.570718 43.011719 35 43.011719 L 13 43.011719 C 12.429282 43.011719 12 42.582436 12 42.011719 C 12 41.441001 12.429282 41.011719 13 41.011719 z"/></svg>