<svg xmlns="http://www.w3.org/2000/svg"  viewBox="0 0 48 48" width="48px" height="48px"><path d="M 23.345703 3.0039062 C 22.818941 3.0085586 21.608503 3.0975046 20.351562 3.7382812 C 18.797814 4.530368 17.182604 6.3004149 16.455078 9.2597656 C 12.0037 11.473809 10 16.290086 10 20.505859 C 10 23.505859 11.398937 26.156177 12.634766 28.875 C 13.74547 31.318549 14.659298 33.840243 14.855469 36.599609 C 12.597122 37.621638 11 39.879252 11 42.505859 C 11 43.869454 12.136406 45.005859 13.5 45.005859 L 35.5 45.005859 C 36.863594 45.005859 38 43.869454 38 42.505859 C 38 39.769597 36.270211 37.43834 33.861328 36.484375 C 33.512517 33.013787 31.587171 30.447203 29.578125 28.09375 C 28.247235 26.534708 26.920474 24.961461 25.800781 23.134766 C 26.643262 23.310425 27.509551 23.513479 28.228516 23.433594 C 29.67093 23.273326 30.615242 22.858214 31.179688 22.576172 L 32.429688 22.841797 A 1.50015 1.50015 0 0 0 32.457031 22.847656 C 34.695102 23.280432 36.63316 21.93426 37.248047 20.271484 C 37.862934 18.608709 37.492215 16.521374 35.837891 15.375 L 35.873047 15.398438 L 26.888672 8.796875 A 1.50015 1.50015 0 0 0 26.472656 8.5820312 C 26.472656 8.5820312 25.521034 8.4364599 25 8.328125 L 25 4.5058594 A 1.50015 1.50015 0 0 0 23.621094 3.0097656 C 23.621094 3.0097656 23.52129 3.0023555 23.345703 3.0039062 z M 22 6.3398438 L 22 9.5859375 A 1.50015 1.50015 0 0 0 23.373047 11.080078 C 24.80251 11.20199 25.28422 11.374383 25.369141 11.402344 L 34.095703 17.816406 A 1.50015 1.50015 0 0 0 34.128906 17.841797 C 34.490582 18.092422 34.629206 18.701494 34.433594 19.230469 C 34.237981 19.759444 34.047273 20.099568 33.027344 19.902344 L 31.3125 19.537109 A 1.50015 1.50015 0 0 0 30.228516 19.71875 C 30.228516 19.71875 29.228449 20.303176 27.896484 20.451172 C 26.56452 20.599168 25.121901 20.433232 23.683594 18.583984 A 1.50015 1.50015 0 0 0 21.060547 19.927734 C 22.413888 24.529094 25.131717 27.504688 27.296875 30.041016 C 29.067989 32.115749 30.367484 33.836519 30.800781 36.005859 L 17.763672 36.005859 C 17.457865 32.838326 16.451861 30.025344 15.365234 27.634766 C 14.101063 24.853589 13 22.505859 13 20.505859 C 13 16.99917 14.683629 13.01517 18.289062 11.589844 A 1.50015 1.50015 0 0 0 19.212891 10.464844 C 19.698342 7.8010052 20.786265 6.8835374 21.714844 6.4101562 C 21.87397 6.3290351 21.854982 6.392481 22 6.3398438 z M 17.5 39.005859 L 31.5 39.005859 C 33.272615 39.005859 34.652292 40.307786 34.900391 42.005859 L 14.099609 42.005859 C 14.34776 40.308562 15.727714 39.005859 17.5 39.005859 z"/></svg>