<svg xmlns="http://www.w3.org/2000/svg" xmlns:xlink="http://www.w3.org/1999/xlink" viewBox="0,0,256,256" width="128px" height="128px" fill-rule="nonzero"><g fill="#e0ebf5" fill-rule="nonzero" stroke="none" stroke-width="1" stroke-linecap="butt" stroke-linejoin="miter" stroke-miterlimit="10" stroke-dasharray="" stroke-dashoffset="0" font-family="none" font-weight="none" font-size="none" text-anchor="none" style="mix-blend-mode: normal"><g transform="scale(10.66667,10.66667)"><path d="M4.5,24h15c0.276,0 0.5,-0.224 0.5,-0.5v-3c0,-0.276 -0.224,-0.5 -0.5,-0.5c-2.123,0 -4.388,-4.804 -4.49,-12h0.49c0.276,0 0.5,-0.224 0.5,-0.5v-3c0,-0.276 -0.224,-0.5 -0.5,-0.5h-0.676c0.113,-0.32 0.176,-0.658 0.176,-1c0,-1.654 -1.346,-3 -3,-3c-1.654,0 -3,1.346 -3,3c0,0.342 0.063,0.68 0.176,1h-0.676c-0.276,0 -0.5,0.224 -0.5,0.5v3c0,0.276 0.224,0.5 0.5,0.5h0.49c-0.102,7.196 -2.367,12 -4.49,12c-0.276,0 -0.5,0.224 -0.5,0.5v3c0,0.276 0.224,0.5 0.5,0.5zM19,23h-14v-2h14zM10,3c0,-1.103 0.897,-2 2,-2c1.103,0 2,0.897 2,2c0,0.356 -0.117,0.696 -0.295,1h-3.41c-0.178,-0.304 -0.295,-0.644 -0.295,-1zM9,5h6v2h-0.5h-5h-0.5zM9.996,8h4.008c0.077,5.498 1.434,10.062 3.38,12h-10.768c1.947,-1.938 3.303,-6.502 3.38,-12z"></path></g></g></svg>