<svg xmlns="http://www.w3.org/2000/svg" xmlns:xlink="http://www.w3.org/1999/xlink" viewBox="0,0,256,256" width="100px" height="100px" fill-rule="nonzero" fill="none"><g fill="none" fill-rule="nonzero" stroke="none" stroke-width="1" stroke-linecap="butt" stroke-linejoin="miter" stroke-miterlimit="10" stroke-dasharray="" stroke-dashoffset="0" font-family="none" font-weight="none" font-size="none" text-anchor="none" style="mix-blend-mode: normal"><g transform="scale(2.56,2.56)"><path d="M62,69h-24v10h41v-41h-10v24l-41,-41l-7,7z" fill="#fa5252"></path><path d="M79,80h-41c-0.553,0 -1,-0.448 -1,-1v-10c0,-0.552 0.447,-1 1,-1h21.586l-39.293,-39.293c-0.391,-0.391 -0.391,-1.023 0,-1.414l7,-7c0.391,-0.391 1.023,-0.391 1.414,0l39.293,39.293v-21.586c0,-0.552 0.447,-1 1,-1h10c0.553,0 1,0.448 1,1v41c0,0.552 -0.447,1 -1,1zM39,78h39v-39h-8v23c0,0.404 -0.243,0.769 -0.617,0.924c-0.373,0.156 -0.803,0.07 -1.09,-0.217l-40.293,-40.293l-5.586,5.586l40.293,40.293c0.286,0.286 0.372,0.716 0.217,1.09c-0.154,0.373 -0.52,0.617 -0.924,0.617h-23z" fill="#1f212b"></path><path d="M57.5,75h-14c-0.276,0 -0.5,-0.224 -0.5,-0.5c0,-0.276 0.224,-0.5 0.5,-0.5h14c0.276,0 0.5,0.224 0.5,0.5c0,0.276 -0.224,0.5 -0.5,0.5zM68.5,75h-4c-0.276,0 -0.5,-0.224 -0.5,-0.5c0,-0.276 0.224,-0.5 0.5,-0.5h4c0.276,0 0.5,0.224 0.5,0.5c0,0.276 -0.224,0.5 -0.5,0.5zM74.5,68c-0.276,0 -0.5,-0.224 -0.5,-0.5v-24c0,-0.276 0.224,-0.5 0.5,-0.5c0.276,0 0.5,0.224 0.5,0.5v24c0,0.276 -0.224,0.5 -0.5,0.5zM74.5,75h-2c-0.276,0 -0.5,-0.224 -0.5,-0.5c0,-0.276 0.224,-0.5 0.5,-0.5h2c0.276,0 0.5,0.224 0.5,0.5c0,0.276 -0.224,0.5 -0.5,0.5z" fill="#1f212b"></path></g></g></svg>