<svg xmlns="http://www.w3.org/2000/svg"  viewBox="0 0 100 100" width="100px" height="100px" fill="#52bfa1"><path fill="#52bfa1" d="M69 38L69 62 79 62 79 21 38 21 38 31 62 31 21 72 28 79z"/><path fill="#1f212b" d="M28,80c-0.256,0-0.512-0.098-0.707-0.293l-7-7c-0.391-0.391-0.391-1.023,0-1.414L59.586,32H38 c-0.552,0-1-0.448-1-1V21c0-0.552,0.448-1,1-1h41c0.552,0,1,0.448,1,1v41c0,0.552-0.448,1-1,1H69c-0.552,0-1-0.448-1-1V40.414 L28.707,79.707C28.512,79.902,28.256,80,28,80z M22.414,72L28,77.586l40.293-40.293c0.286-0.287,0.715-0.373,1.09-0.217 C69.756,37.231,70,37.596,70,38v23h8V22H39v8h23c0.404,0,0.769,0.244,0.924,0.617c0.155,0.374,0.069,0.804-0.217,1.09L22.414,72z"/><path fill="#1f212b" d="M57.5 26h-14c-.276 0-.5-.224-.5-.5s.224-.5.5-.5h14c.276 0 .5.224.5.5S57.776 26 57.5 26zM68.5 26h-4c-.276 0-.5-.224-.5-.5s.224-.5.5-.5h4c.276 0 .5.224.5.5S68.776 26 68.5 26zM74.5 57c-.276 0-.5-.224-.5-.5v-24c0-.276.224-.5.5-.5s.5.224.5.5v24C75 56.776 74.776 57 74.5 57zM74.5 26h-2c-.276 0-.5-.224-.5-.5s.224-.5.5-.5h2c.276 0 .5.224.5.5S74.776 26 74.5 26z"/></svg>